<?xml version="1.0" standalone="no"?>
<!DOCTYPE svg PUBLIC "-//W3C//DTD SVG 20010904//EN"
 "http://www.w3.org/TR/2001/REC-SVG-20010904/DTD/svg10.dtd">
<svg version="1.0" xmlns="http://www.w3.org/2000/svg"
 width="512.000000pt" height="512.000000pt" viewBox="0 0 512.000000 512.000000"
 preserveAspectRatio="xMidYMid meet">

<g transform="translate(0.000000,512.000000) scale(0.100000,-0.100000)"
fill="#ffffff" stroke="none">
<path d="M1025 4407 c-22 -13 -49 -40 -62 -62 l-23 -40 0 -1131 0 -1132 -106
-4 c-152 -5 -144 10 -144 -284 0 -295 -13 -274 175 -274 l135 0 0 -375 c0
-362 1 -376 20 -395 19 -19 33 -20 223 -20 266 0 247 -17 247 218 l0 172 1070
0 1070 0 0 -173 c0 -233 -19 -217 248 -217 189 0 203 1 222 20 19 19 20 33 20
395 l0 375 135 0 c188 0 175 -21 175 274 0 215 -2 236 -19 257 -19 24 -23 24
-216 27 l-198 3 139 80 c77 43 153 94 171 113 37 39 51 104 33 151 -22 58
-1115 1958 -1143 1986 -33 33 -91 52 -136 43 -18 -4 -133 -64 -255 -134 l-224
-127 -4 83 c-5 98 -29 143 -94 174 -38 19 -61 20 -355 20 -254 0 -319 -3 -342
-15 -24 -12 -32 -12 -62 1 -27 11 -97 14 -347 14 -306 0 -314 -1 -353 -23z
m663 -264 l3 -143 -306 0 -305 0 0 138 c0 76 3 142 7 145 4 4 140 6 302 5
l296 -3 3 -142z m747 125 c3 -13 4 -77 3 -143 l-3 -120 -302 -3 -303 -2 0 138
c0 76 3 142 7 145 3 4 138 7 299 7 l294 0 5 -22z m733 -108 c34 -60 62 -114
62 -119 0 -9 -501 -301 -516 -301 -14 1 -135 220 -132 237 4 18 496 303 512
297 6 -3 39 -54 74 -114z m183 -321 c22 -39 37 -75 33 -79 -5 -5 -123 -74
-263 -154 l-255 -145 -41 72 c-23 40 -39 76 -35 80 9 10 502 296 512 296 4 1
26 -31 49 -70z m-1661 -64 l0 -85 -305 0 -305 0 0 85 0 85 305 0 305 0 0 -85z
m750 0 l0 -85 -305 0 -305 0 0 85 0 85 305 0 305 0 0 -85z m610 -915 c238
-415 441 -770 452 -787 l20 -33 -474 0 -473 0 3 817 c2 803 3 817 21 788 10
-16 213 -370 451 -785z m580 493 c91 -158 177 -309 192 -334 l27 -46 -259
-148 c-142 -82 -262 -148 -267 -147 -16 3 -383 656 -374 665 9 9 502 294 511
296 3 1 80 -128 170 -286z m-1940 -188 l0 -385 -305 0 -305 0 0 385 0 385 305
0 305 0 0 -385z m750 0 l0 -385 -305 0 -305 0 0 385 0 385 305 0 305 0 0 -385z
m1519 -386 c23 -39 41 -74 41 -77 0 -8 -520 -306 -524 -301 -8 10 -77 133 -79
140 -1 7 505 307 520 309 1 0 20 -32 42 -71z m-2269 -229 l0 -90 -305 0 -305
0 0 90 0 90 305 0 305 0 0 -90z m745 0 l0 -85 -302 -3 -303 -2 0 90 0 90 303
-2 302 -3 0 -85z m1710 -96 c65 -113 66 -117 48 -134 -27 -25 -478 -280 -496
-280 -16 0 -153 227 -143 237 12 13 502 292 513 292 6 1 41 -51 78 -115z
m-2457 -271 l-3 -138 -300 0 -300 0 -3 138 -3 137 306 0 306 0 -3 -137z m750
0 l-3 -138 -302 -3 -303 -2 0 140 0 140 305 0 306 0 -3 -137z m1852 -423 l0
-140 -1730 0 -1730 0 0 140 0 140 1730 0 1730 0 0 -140z m-2940 -605 l0 -325
-105 0 -105 0 0 325 0 325 105 0 105 0 0 -325z m2280 195 l0 -130 -1070 0
-1070 0 0 130 0 130 1070 0 1070 0 0 -130z m350 -195 l0 -325 -105 0 -105 0 0
325 0 325 105 0 105 0 0 -325z"/>
</g>
</svg>
